<svg
        id="eouKy428hag1"
        xmlns="http://www.w3.org/2000/svg"
        xmlns:xlink="http://www.w3.org/1999/xlink"
        viewBox="0 0 666.66669 666.66669"
        shape-rendering="geometricPrecision"
        text-rendering="geometricPrecision"
      >
        <defs>
          <linearGradient
            id="eouKy428hag8-fill"
            x1="119.864708"
            y1="334.1091"
            x2="371.508049"
            y2="283.905525"
            spreadMethod="pad"
            gradientUnits="userSpaceOnUse"
            gradientTransform="translate(0 0)"
          >
            <stop id="eouKy428hag8-fill-0" offset="0%" stop-color="#392ec4" />
            <stop
              id="eouKy428hag8-fill-1"
              offset="26.060794%"
              stop-color="#992ec4"
            />
            <stop
              id="eouKy428hag8-fill-2"
              offset="30.6931%"
              stop-color="#992ec4"
            />
            <stop
              id="eouKy428hag8-fill-3"
              offset="61.377541%"
              stop-color="#006aae"
            />
            <stop
              id="eouKy428hag8-fill-4"
              offset="66.8317%"
              stop-color="#006aae"
            />
            <stop id="eouKy428hag8-fill-5" offset="100%" stop-color="#00eed0" />
          </linearGradient>
          <radialGradient
            id="eouKy428hag50-fill"
            cx="0"
            cy="0"
            r="1"
            spreadMethod="pad"
            gradientUnits="userSpaceOnUse"
            gradientTransform="matrix(18.693049 15.009421 6.726276 -8.377046 246.740387 301.63147)"
          >
            <stop id="eouKy428hag50-fill-0" offset="0%" stop-color="#ff31ca" />
            <stop
              id="eouKy428hag50-fill-1"
              offset="0.49505%"
              stop-color="#ff31ca"
            />
            <stop
              id="eouKy428hag50-fill-2"
              offset="99.151554%"
              stop-color="#7b10c7"
            />
            <stop
              id="eouKy428hag50-fill-3"
              offset="100%"
              stop-color="#7b10c7"
            />
          </radialGradient>
          <linearGradient
            id="eouKy428hag62-fill"
            x1="201.690948"
            y1="212.713654"
            x2="233.031731"
            y2="206.461077"
            spreadMethod="pad"
            gradientUnits="userSpaceOnUse"
            gradientTransform="translate(0 0)"
          >
            <stop id="eouKy428hag62-fill-0" offset="0%" stop-color="#ff6e46" />
            <stop
              id="eouKy428hag62-fill-1"
              offset="9.40594%"
              stop-color="#ff6e46"
            />
            <stop
              id="eouKy428hag62-fill-2"
              offset="100%"
              stop-color="#ffdc00"
            />
          </linearGradient>
          <linearGradient
            id="eouKy428hag67-fill"
            x1="165.781418"
            y1="331.375793"
            x2="179.455745"
            y2="328.647726"
            spreadMethod="pad"
            gradientUnits="userSpaceOnUse"
            gradientTransform="translate(0 0)"
          >
            <stop id="eouKy428hag67-fill-0" offset="0%" stop-color="#ff6e46" />
            <stop
              id="eouKy428hag67-fill-1"
              offset="9.40594%"
              stop-color="#ff6e46"
            />
            <stop
              id="eouKy428hag67-fill-2"
              offset="100%"
              stop-color="#ffdc00"
            />
          </linearGradient>
        </defs>
        <g transform="matrix(1.333333 0 0-1.333333 0 666.666687)">
          <path d="M0,0h500v500h-500Z" fill="#000126" />
          <g transform="translate(3.304866-57.788993)">
            <g>
              <g>
                <g>
                  <path
                    d="M287.388,423.305c-3.766-.218-7.566-.561-11.414-1.088v0c-15.402-2.168-31.22-6.834-46.56-13.246v0c-11.406-4.781-22.579-10.485-33.293-16.964v0c-3.71-2.239-7.356-4.57-10.938-6.985v0c-13.959-9.402-26.923-20.153-38.177-31.786v0c-2.822-2.904-5.523-5.862-8.094-8.878v0c-2.586-3.001-5.023-6.064-7.321-9.154v0c-4.561-6.197-8.518-12.536-11.721-18.882v0c-6.485-12.676-9.653-25.331-9.269-36.543v0l.933.283c.929,5.882,2.479,11.865,4.891,17.869v0c2.401,6.005,5.454,12.005,9.185,17.878v0c3.72,5.865,8.057,11.608,12.879,17.122v0c2.385,2.755,4.876,5.482,7.494,8.12v0c2.601,2.663,5.3,5.255,8.097,7.776v0c22.406,20.156,49.726,36.211,76.639,45.882v0c13.453,4.822,26.848,8.023,39.241,9.018v0c3.103.268,6.121.368,9.09.378v0c2.953-.018,5.815-.191,8.613-.474v0c5.761-.619,11.252-1.663,16.443-3.097v0c10.403-2.85,19.485-7.365,26.891-13.278v0c7.468-5.864,13.186-13.184,16.88-21.559v0c7.539-16.688,6.374-37.868-3.85-59.109v0c-1.276-2.662-2.672-5.32-4.189-7.964v0c-.784-1.323-1.558-2.646-2.399-3.947v0c-.843-1.31-1.607-2.637-2.535-3.92v0c-3.497-5.207-7.458-10.289-11.833-15.199v0c-8.786-9.79-19.165-18.834-30.522-26.541v0c-5.541-3.749-11.295-7.189-17.17-10.259v0c-6.174-3.244-12.487-6.064-18.82-8.42v0c-12.366-4.579-24.814-7.429-36.535-8.273v0c-5.852-.402-11.557-.376-16.984.177v0c-5.332.513-10.304,1.556-14.847,3.166v0c-9.082,3.188-16.399,8.524-21.365,15.53v0c-4.978,6.99-7.553,15.65-7.503,25.205v0c.074,9.57,2.873,20.025,8.079,30.478v0c2.646,5.295,5.682,10.338,9.482,15.28v0c2.248,2.938,4.669,5.82,7.298,8.62v0c1.776,1.899,3.634,3.751,5.593,5.542v0c4.729,4.39,9.895,8.508,15.399,12.172v0c.188.126.283.199.283.199v0c2.775,1.894,5.685,3.597,8.588,5.272v0c2.949,1.593,5.908,3.185,8.929,4.53v0c12.059,5.549,24.61,8.867,36.177,9.547v0c5.781.356,11.396-.02,16.327-.963v0c4.938-1.006,9.438-2.678,13.215-5.063v0c7.613-4.722,12.552-12.12,13.891-21.096v0c1.352-8.968-.818-19.384-6.269-29.738v0c-1.409-2.614-2.868-5.118-4.574-7.591v0c-1.725-2.461-3.626-4.886-5.705-7.235v0c-4.148-4.689-9.014-9.091-14.351-12.952v0c-1.74-1.254-3.528-2.448-5.352-3.562v0c-.047-.031-.103-.061-.15-.092v0c-9.345-5.742-19.641-9.665-29.149-11.071v0c-5.727-.898-11.138-.879-16.088-.135v0c-4.74.772-8.886,2.323-12.16,4.679v0c-6.634,4.618-10.021,12.125-9.523,20.856v0c.229,4.37,1.458,9.05,3.634,13.816v0c1.117,2.429,2.387,4.714,3.908,6.971v0c1.513,2.267,3.274,4.496,5.253,6.651v0c1.465,1.563,3.035,3.096,4.715,4.565v0c1.945,1.723,4.026,3.367,6.226,4.887v0c1.055.738,2.135,1.449,3.249,2.125v0c5.354,3.327,11.207,5.881,17.084,7.532v0c2.939.832,5.872,1.378,8.758,1.68v0c2.876.313,5.761.36,8.354.118v0c5.26-.468,9.905-2.231,13.383-5.189v0c3.483-2.938,5.753-7.093,6.454-12.066v0c.709-4.984-.28-10.814-2.882-16.953v0l.818-.092c2.297,3.028,4.176,6.213,5.699,9.448v0c1.458,3.227,2.467,6.493,3.025,9.695v0c.525,3.198.546,6.315.062,9.256v0c-.542,2.903-1.485,5.691-3.04,8.122v0c-3.029,4.908-8.159,8.633-14.802,10.55v0c-3.36.946-6.908,1.46-10.718,1.629v0c-3.815.149-7.874-.112-12.065-.775v0c-8.378-1.306-17.276-4.303-25.839-8.632v0c-2.952-1.511-5.866-3.183-8.716-5v0c-5.396-3.431-10.55-7.389-15.186-11.767v0c-3.53-3.334-6.788-6.885-9.671-10.552v0c-2.887-3.686-5.343-7.51-7.385-11.202v0c-4.142-7.474-6.805-15.151-7.635-22.378v0c-.83-7.227.104-13.991,2.766-19.764v0c2.627-5.796,7.007-10.574,12.71-14.038v0c5.742-3.418,12.774-5.536,20.548-6.179v0c7.611-.591,15.84-.08,24.306,1.667v0c14.286,2.861,29.018,9.037,42.407,17.47v0c.01-.001.012.009.012.009v0c2.484,1.564,4.911,3.201,7.291,4.907v0c1.894,1.366,3.768,2.788,5.59,4.25v0c.012.007.012.007.013.017v0c5.472,4.374,10.559,9.121,15.081,14.154v0c3.014,3.354,5.784,6.809,8.282,10.339v0c2.498,3.519,4.653,7.117,6.563,10.61v0c7.624,14.143,10.853,28.589,9.181,41.007v0c-1.606,12.445-7.954,22.95-18.33,29.822v0c-3.543,2.38-7.572,4.315-11.958,5.792v0c-1.997.674-4.064,1.249-6.2,1.737v0c-6.922,1.493-14.184,2.095-21.965,1.781v0c-8.625-.288-17.735-1.693-26.978-4.121v0c-7.342-1.941-14.762-4.529-22.081-7.74v0c-4.147-1.773-8.228-3.824-12.292-5.95v0c-4.02-2.206-8.033-4.485-11.903-7.017v0c-7.805-4.979-15.203-10.631-22.039-16.731v0c-6.856-6.096-13.038-12.705-18.481-19.542v0c-5.471-6.822-10.023-14-13.692-20.946v0c-7.449-14.024-11.656-28.317-12.157-41.463v0c-.483-13.15,2.616-25.169,9.084-35.014v0c6.564-9.783,16.485-17.351,28.923-21.962v0c6.193-2.328,13.052-3.879,20.296-4.682v0c7.102-.846,14.654-.966,22.459-.432v0c15.607,1.046,32.255,4.761,48.731,10.937v0c16.471,6.146,32.783,14.66,47.799,25.011v0c15.011,10.333,28.768,22.455,40.182,35.556v0c3.673,4.203,7.101,8.505,10.277,12.868v0c1.768,2.421,3.447,4.86,5.047,7.314v0c1.176,1.702,2.166,3.443,3.232,5.157v0c1.09,1.731,2.046,3.456,3.011,5.182v0c1.896,3.466,3.627,6.933,5.199,10.414v0c6.249,13.896,9.682,27.782,9.938,40.559v0c.288,12.791-2.452,24.462-7.621,34.538v0c-5.247,10.041-12.923,18.486-22.506,25.089v0c-9.586,6.592-21.131,11.281-33.979,13.998v0c-6.417,1.362-13.224,2.149-20.233,2.487v0c-1.694.066-3.403.101-5.127.101v0c-1.963,0-3.945-.046-5.946-.146"
                    fill="url(#eouKy428hag8-fill)"
                  />
                </g>
              </g>
            </g>
          </g>
          <g transform="translate(3.304866-57.788993)">
            <g clip-path="url(#eouKy428hag44)">
              <g>
                <g>
                  <g>
                    <g clip-path="url(#eouKy428hag18)">
                      <g opacity="0.330002">
                        <g transform="translate(317.517212 299.701385)">
                          <path
                            d="M0,0c-1.91-3.494-4.065-7.091-6.562-10.611-2.5-3.529-5.269-6.984-8.284-10.339-4.521-5.032-9.608-9.779-15.08-14.153c15.351,19.544,45.709,65.605,18.824,95.635-15.703,17.531-41.508,19.08-65.148,15.486c9.243,2.428,18.354,3.833,26.978,4.121c7.781.314,15.043-.289,21.965-1.782c2.136-.487,4.203-1.063,6.2-1.736c4.386-1.477,8.415-3.413,11.958-5.792C1.227,63.956,7.574,53.451,9.181,41.007C10.854,28.589,7.624,14.142,0,0"
                            fill="#000daf"
                          />
                        </g>
                      </g>
                      <clipPath id="eouKy428hag18">
                        <path d="M241.267,379.921h85.862v-115.323h-85.862Z" />
                      </clipPath>
                    </g>
                  </g>
                </g>
                <g>
                  <g>
                    <g clip-path="url(#eouKy428hag26)">
                      <g opacity="0.330002">
                        <g transform="translate(372.861908 306.678406)">
                          <path
                            d="M0,0c-1.571-3.48-3.303-6.948-5.198-10.414-.966-1.725-1.922-3.451-3.012-5.181-1.065-1.715-2.056-3.455-3.231-5.157-1.601-2.455-3.281-4.894-5.048-7.314c16.375,28.721,27.856,69.197-2.24,106.945-43.266,54.284-125.668,22.134-158.012,6.449c10.714,6.479,21.887,12.183,33.292,16.964c15.341,6.413,31.16,11.078,46.561,13.247c3.848.527,7.649.87,11.414,1.087c3.759.189,7.451.187,11.073.045c7.009-.338,13.817-1.125,20.234-2.486c12.847-2.717,24.393-7.406,33.979-13.999c9.583-6.603,17.258-15.047,22.505-25.088C7.486,65.022,10.226,53.351,9.938,40.56C9.683,27.783,6.25,13.896,0,0"
                            fill="#000daf"
                          />
                        </g>
                      </g>
                      <clipPath id="eouKy428hag26">
                        <path d="M196.121,423.451h186.699v-144.839h-186.699Z" />
                      </clipPath>
                    </g>
                  </g>
                </g>
                <g>
                  <g>
                    <g clip-path="url(#eouKy428hag34)">
                      <g opacity="0.330002">
                        <g transform="translate(275.379486 238.758499)">
                          <path
                            d="M0,0c-.347-.309-.747-.575-1.184-.825-22.427-12.595-93.545-41.082-117.091,4.863-14.774,28.837,8.038,59.15,27.079,77.724-2.628-2.8-5.049-5.682-7.297-8.619-3.8-4.942-6.836-9.986-9.483-15.28-5.206-10.453-8.005-20.908-8.079-30.478-.05-9.555,2.525-18.216,7.504-25.205c4.965-7.007,12.282-12.342,21.364-15.531c4.543-1.61,9.515-2.653,14.848-3.166c5.426-.552,11.131-.579,16.984-.176c11.721.843,24.169,3.693,36.534,8.272C-12.487,-6.064,-6.174,-3.245,0,0"
                            fill="#000daf"
                          />
                        </g>
                      </g>
                      <clipPath id="eouKy428hag34">
                        <path d="M152.369,320.52h123.011v-102.925h-123.011Z" />
                      </clipPath>
                    </g>
                  </g>
                </g>
                <g>
                  <g>
                    <g clip-path="url(#eouKy428hag42)">
                      <g opacity="0.330002">
                        <g transform="translate(266.185211 269.490906)">
                          <path
                            d="M0,0c-.339-.779-.903-1.411-1.722-1.88-12.855-7.397-55.658-25.881-69.075,3.115-8.893,19.211,8.583,35.966,21.386,45.098-1.679-1.47-3.25-3.003-4.714-4.566-1.979-2.155-3.74-4.384-5.252-6.651-1.521-2.257-2.793-4.542-3.91-6.97-2.174-4.767-3.404-9.447-3.633-13.816-.498-8.732,2.889-16.239,9.524-20.857c3.272-2.355,7.418-3.907,12.159-4.679c4.95-.743,10.361-.762,16.087.135C-19.641,-9.664,-9.345,-5.743,0,0"
                            fill="#000daf"
                          />
                        </g>
                      </g>
                      <clipPath id="eouKy428hag42">
                        <path d="M192.962,315.823h73.223v-60.855h-73.223Z" />
                      </clipPath>
                    </g>
                  </g>
                </g>
              </g>
              <clipPath id="eouKy428hag44">
                <path d="M0,500h500v-500L0,0Z" />
              </clipPath>
            </g>
          </g>
          <g transform="translate(3.304866-57.788993)">
            <g>
              <g>
                <g>
                  <path
                    d="M233.584,305.762c-9.265-6.723-13.785-16.296-10.095-21.382v0c3.69-5.087,14.193-3.76,23.459,2.962v0c9.266,6.722,13.785,16.295,10.095,21.382v0c-1.513,2.085-4.17,3.093-7.418,3.093v0c-4.675,0-10.573-2.088-16.041-6.055"
                    fill="url(#eouKy428hag50-fill)"
                  />
                </g>
              </g>
            </g>
          </g>
          <g transform="translate(3.304866-57.788993)">
            <g clip-path="url(#eouKy428hag56)">
              <g>
                <g transform="translate(339.360992 349.9133)">
                  <path
                    d="M0,0l.562-4.776l4.717-.941L0.91,-7.729l.563-4.776-3.263,3.534-4.368-2.011l2.351,4.195-3.262,3.533l4.716-.941Z"
                    fill="#fdfdfd"
                  />
                </g>
              </g>
              <clipPath id="eouKy428hag56">
                <path d="M0,500h500v-500L0,0Z" />
              </clipPath>
            </g>
          </g>
          <g transform="translate(3.304866-57.788993)">
            <g>
              <g>
                <g>
                  <path
                    d="M214.364,213.844l-11.971,2.388l8.281-8.968-5.971-10.648l11.089,5.105l8.281-8.97-1.427,12.124l11.088,5.104-11.971,2.389-1.429,12.123Z"
                    fill="url(#eouKy428hag62-fill)"
                  />
                </g>
              </g>
            </g>
          </g>
          <g transform="translate(3.304866-57.788993)">
            <g>
              <g>
                <g>
                  <path
                    d="M171.311,331.869l-5.223,1.042l3.612-3.913-2.604-4.646l4.837,2.227l3.614-3.913-.623,5.29l4.837,2.227-5.222,1.042-.623,5.289Z"
                    fill="url(#eouKy428hag67-fill)"
                  />
                </g>
              </g>
            </g>
          </g>
          <g transform="translate(3.304866-57.788993)">
            <g clip-path="url(#eouKy428hag125)">
              <g>
                <g transform="translate(333.685211 365.304901)">
                  <path
                    d="M0,0l.253-2.145l2.118-.423-1.962-.903.253-2.145-1.466,1.587-1.962-.903l1.057,1.884-1.465,1.587l2.118-.423Z"
                    fill="#fdfdfd"
                  />
                </g>
                <g transform="translate(349.008392 339.820496)">
                  <path
                    d="M0,0l.337-2.861l2.825-.563-2.616-1.205.337-2.861-1.954,2.117-2.617-1.205l1.409,2.513-1.954,2.116l2.825-.564Z"
                    fill="#fdfdfd"
                  />
                </g>
                <g transform="translate(278.924408 410.764801)">
                  <path
                    d="M0,0c-.447-2.241-2.627-3.696-4.868-3.249-2.241.448-3.695,2.627-3.248,4.868.447,2.242,2.626,3.696,4.867,3.249C-1.007,4.421,0.447,2.241,0,0"
                    fill="#fdfdfd"
                  />
                </g>
                <g transform="translate(262.380493 416.405914)">
                  <path
                    d="M0,0c-.199-.998-1.17-1.646-2.168-1.446-.998.198-1.645,1.169-1.446,2.167s1.17,1.646,2.168,1.447s1.645-1.17,1.446-2.168"
                    fill="#fdfdfd"
                  />
                </g>
                <g transform="translate(259.677399 402.854706)">
                  <path
                    d="M0,0c-.199-.998-1.17-1.646-2.168-1.447s-1.645,1.17-1.447,2.168c.199.998,1.17,1.646,2.168,1.447s1.645-1.17,1.447-2.168"
                    fill="#fdfdfd"
                  />
                </g>
                <g transform="translate(288.431305 322.348785)">
                  <path
                    d="M0,0c-.142-.71-.832-1.17-1.541-1.029-.71.142-1.171.832-1.029,1.542.141.709.832,1.17,1.542,1.028s1.17-.832,1.028-1.541"
                    fill="#fdfdfd"
                  />
                </g>
                <g transform="translate(298.483002 313.998688)">
                  <path
                    d="M0,0c-.248-1.241-1.454-2.046-2.695-1.798-1.241.247-2.046,1.454-1.798,2.694.247,1.241,1.454,2.046,2.694,1.799C-0.558,2.447,0.247,1.241,0,0"
                    fill="#fdfdfd"
                  />
                </g>
                <g transform="translate(290.049408 309.964508)">
                  <path
                    d="M0,0c-.358-1.795-2.104-2.961-3.899-2.603-1.796.359-2.961,2.104-2.603,3.9.357,1.796,2.104,2.961,3.899,2.603C-0.807,3.542,0.358,1.795,0,0"
                    fill="#fdfdfd"
                  />
                </g>
                <g transform="translate(245.083603 203.016296)">
                  <path
                    d="M0,0c-.11-.553-.647-.912-1.201-.802-.552.111-.911.649-.801,1.201.11.553.648.912,1.201.801.552-.11.911-.647.801-1.2"
                    fill="#fdfdfd"
                  />
                </g>
                <g transform="translate(265.272095 202.713593)">
                  <path
                    d="M0,0c-.334-1.672-1.959-2.757-3.632-2.424-1.672.334-2.757,1.96-2.423,3.632.333,1.672,1.959,2.757,3.631,2.424C-0.751,3.298,0.334,1.672,0,0"
                    fill="#fdfdfd"
                  />
                </g>
                <g transform="translate(255.579697 194.322906)">
                  <path
                    d="M0,0c-.295-1.479-1.732-2.438-3.21-2.143s-2.437,1.733-2.143,3.211c.295,1.478,1.733,2.437,3.21,2.142C-0.664,2.916,0.295,1.479,0,0"
                    fill="#fdfdfd"
                  />
                </g>
                <g>
                  <g>
                    <g clip-path="url(#eouKy428hag99)">
                      <g opacity="0.529999">
                        <g transform="translate(358.523102 368.325409)">
                          <path
                            d="M0,0c1.845-3.419,3.094-7.148,4.007-10.934.98-3.783,1.457-7.672,1.817-11.571.543-7.818-.233-15.712-1.97-23.354l-.629-2.877c-.196-.963-.543-1.883-.808-2.827l-1.738-5.625-2.174-5.465-1.089-2.734c-.408-.89-.855-1.762-1.281-2.644l-2.61-5.269c-.411-.892-.927-1.724-1.428-2.565l-1.5-2.524-3.004-5.048-3.319-4.832c-1.133-1.591-2.187-3.241-3.392-4.779l-3.626-4.608-1.814-2.302c-.604-.769-1.282-1.475-1.92-2.215l-3.889-4.386-.981-1.089-1.035-1.038-2.071-2.074c-1.4-1.364-2.719-2.807-4.183-4.102l-4.354-3.921c-1.427-1.334-3.008-2.491-4.512-3.734-2.998-2.501-6.195-4.748-9.366-7.016l-4.896-3.202c-1.646-1.041-3.34-2.01-5.011-3.009-6.789-3.802-13.815-7.268-21.242-9.559c1.806.709,3.581,1.481,5.319,2.338c1.76.8,3.467,1.715,5.189,2.589c1.689.943,3.392,1.853,5.05,2.843c1.642,1.021,3.321,1.97,4.925,3.044c6.524,4.12,12.697,8.77,18.545,13.771c11.757,9.942,22.065,21.521,30.81,34.156l3.294,4.733l2.971,4.928l1.486,2.464c.496.822,1.009,1.634,1.414,2.503l2.604,5.125c.432.855.888,1.701,1.302,2.564L-4,-61.596l2.222,5.3l1.801,5.452c.286.912.657,1.803.873,2.735l.696,2.785c1.887,7.41,2.962,15.072,2.776,22.755-.134,3.832-.38,7.687-1.133,11.468-.17.949-.33,1.901-.583,2.831-.245.932-.428,1.884-.723,2.802C1.395,-3.613,0.806,-1.765,0,0"
                            fill="#76ffff"
                          />
                        </g>
                      </g>
                      <clipPath id="eouKy428hag99">
                        <path d="M270.505,368.325h94.013v-145.303h-94.013Z" />
                      </clipPath>
                    </g>
                  </g>
                </g>
                <g>
                  <g>
                    <g clip-path="url(#eouKy428hag107)">
                      <g opacity="0.529999">
                        <g transform="translate(151.888794 280.823914)">
                          <path
                            d="M0,0c-1.315-4.762-2.162-9.621-2.595-14.491-.435-4.868-.415-9.761.17-14.559c1.133-9.584,4.981-18.814,11.66-25.647c6.666-6.873,15.241-11.905,24.558-14.435c4.659-1.284,9.5-1.973,14.375-2.131c4.877-.167,9.803.159,14.648,1.124-4.687-1.611-9.659-2.348-14.641-2.591-4.987-.19-10.036.194-14.947,1.334-2.456.554-4.892,1.251-7.242,2.186-2.354.917-4.669,1.96-6.872,3.212-1.128.581-2.169,1.308-3.249,1.971-1.03.735-2.099,1.422-3.083,2.219l-1.494,1.173c-.49.403-.958.829-1.437,1.242-.972.807-1.863,1.73-2.772,2.625-.883.921-1.707,1.903-2.519,2.887-.763,1.026-1.567,2.022-2.235,3.113-1.426,2.122-2.608,4.4-3.597,6.747-1.947,4.711-3.096,9.712-3.466,14.736-.408,5.024-.094,10.058.694,14.978C-3.195,-9.398,-1.942,-4.556,0,0"
                            fill="#76ffff"
                          />
                        </g>
                      </g>
                      <clipPath id="eouKy428hag107">
                        <path d="M146.972,280.824h67.733v-72.777h-67.733Z" />
                      </clipPath>
                    </g>
                  </g>
                </g>
                <g>
                  <g>
                    <g clip-path="url(#eouKy428hag115)">
                      <g opacity="0.529999">
                        <g transform="translate(206.021606 348.966492)">
                          <path
                            d="M0,0C3.832,3.381,8.347,5.925,12.968,8.128c4.66,2.148,9.52,3.882,14.498,5.182c9.966,2.575,20.314,3.522,30.581,3.284c5.144-.098,10.364-.689,15.411-2.009c2.506-.733,5.002-1.534,7.373-2.66c2.383-1.081,4.684-2.372,6.79-3.938c8.567-6.091,14.098-16.081,14.7-26.267-1.863,10.005-7.773,18.971-16.03,24.348-4.117,2.711-8.745,4.589-13.541,5.775-4.814,1.168-9.766,1.716-14.781,1.763-2.512.014-5.029.173-7.538.017l-3.765-.138c-1.258-.027-2.502-.208-3.756-.286-5.02-.311-9.972-1.2-14.905-2.151C23.097,9.97,18.25,8.58,13.539,6.784C8.834,4.986,4.221,2.847,0,0"
                            fill="#76ffff"
                          />
                        </g>
                      </g>
                      <clipPath id="eouKy428hag115">
                        <path d="M206.022,365.596h102.32v-34.909h-102.32Z" />
                      </clipPath>
                    </g>
                  </g>
                </g>
                <g>
                  <g>
                    <g clip-path="url(#eouKy428hag123)">
                      <g opacity="0.529999">
                        <g transform="translate(201.962997 310.018707)">
                          <path
                            d="M0,0c-2.545-2.089-4.86-4.4-6.93-6.887-2.088-2.468-3.895-5.143-5.359-7.961-2.908-5.634-4.254-11.998-3.333-18.197.706-6.219,3.659-12.032,8.378-16.219c2.346-2.098,5.047-3.851,7.946-5.254c2.896-1.42,5.978-2.522,9.18-3.282-3.304.103-6.583.84-9.747,1.927-3.147,1.134-6.192,2.7-8.88,4.822-2.709,2.092-4.984,4.781-6.691,7.8-1.661,3.047-2.705,6.41-3.149,9.817-.247,1.703-.264,3.433-.234,5.153.112,1.717.259,3.441.666,5.115.766,3.351,2.058,6.567,3.836,9.454c1.744,2.909,3.913,5.516,6.322,7.825C-5.561,-3.607,-2.921,-1.547,0,0"
                            fill="#76ffff"
                          />
                        </g>
                      </g>
                      <clipPath id="eouKy428hag123">
                        <path d="M183.133,310.019h28.712v-57.801h-28.712Z" />
                      </clipPath>
                    </g>
                  </g>
                </g>
              </g>
              <clipPath id="eouKy428hag125">
                <path d="M0,500h500v-500L0,0Z" />
              </clipPath>
            </g>
          </g>
        </g>
      </svg>